<svg width="160" height="160" viewBox="0 0 160 160" fill="none" xmlns="http://www.w3.org/2000/svg">
<g clip-path="url(#clip0_449_886)">
<path d="M80 79.9995C87.9113 79.9995 95.6448 77.6536 102.223 73.2583C108.801 68.8631 113.928 62.6159 116.955 55.3069C119.983 47.9978 120.775 39.9552 119.231 32.1959C117.688 24.4367 113.878 17.3094 108.284 11.7153C102.69 6.12116 95.5629 2.31153 87.8036 0.768118C80.0444 -0.77529 72.0017 0.0168432 64.6927 3.04435C57.3836 6.07185 51.1365 11.1988 46.7412 17.7767C42.346 24.3547 40 32.0883 40 39.9995C40.0106 50.6049 44.2283 60.7729 51.7274 68.2721C59.2266 75.7713 69.3946 79.9889 80 79.9995ZM80 13.3329C85.2742 13.3329 90.4299 14.8968 94.8152 17.827C99.2005 20.7572 102.618 24.9219 104.637 29.7946C106.655 34.6673 107.183 40.0291 106.154 45.2019C105.125 50.3748 102.586 55.1263 98.8562 58.8557C95.1268 62.5851 90.3752 65.1249 85.2024 66.1538C80.0296 67.1827 74.6678 66.6547 69.7951 64.6363C64.9224 62.618 60.7577 59.2 57.8275 54.8147C54.8973 50.4294 53.3333 45.2737 53.3333 39.9995C53.3333 32.9271 56.1428 26.1443 61.1438 21.1433C66.1448 16.1424 72.9276 13.3329 80 13.3329Z" fill="#999999"/>
<path d="M80 93.3333C64.0924 93.3509 48.8414 99.678 37.5931 110.926C26.3447 122.175 20.0176 137.426 20 153.333C20 155.101 20.7024 156.797 21.9526 158.047C23.2029 159.298 24.8986 160 26.6667 160C28.4348 160 30.1305 159.298 31.3807 158.047C32.631 156.797 33.3333 155.101 33.3333 153.333C33.3333 140.956 38.25 129.087 47.0017 120.335C55.7534 111.583 67.6232 106.667 80 106.667C92.3768 106.667 104.247 111.583 112.998 120.335C121.75 129.087 126.667 140.956 126.667 153.333C126.667 155.101 127.369 156.797 128.619 158.047C129.87 159.298 131.565 160 133.333 160C135.101 160 136.797 159.298 138.047 158.047C139.298 156.797 140 155.101 140 153.333C139.982 137.426 133.655 122.175 122.407 110.926C111.159 99.678 95.9076 93.3509 80 93.3333Z" fill="#999999"/>
</g>
<defs>
<clipPath id="clip0_449_886">
<rect width="160" height="160" fill="white"/>
</clipPath>
</defs>
</svg>
